<?xml version="1.0" encoding="utf-8"?>
<!-- Generator: Adobe Illustrator 15.0.0, SVG Export Plug-In . SVG Version: 6.00 Build 0)  -->
<!DOCTYPE svg PUBLIC "-//W3C//DTD SVG 1.1//EN" "http://www.w3.org/Graphics/SVG/1.1/DTD/svg11.dtd">
<svg version="1.1" id="Capa_1" xmlns="http://www.w3.org/2000/svg" xmlns:xlink="http://www.w3.org/1999/xlink" x="0px" y="0px"
	 width="24.01px" height="24.01px" viewBox="203.052 203.052 24.01 24.01" enable-background="new 203.052 203.052 24.01 24.01"
	 xml:space="preserve">
<g>
	<path id="Facebook_Places" fill="#D5DDDF" d="M223.158,209.028c-0.088-0.32-0.267-0.662-0.398-0.96
		c-1.58-3.692-5.031-5.016-7.818-5.016c-3.731,0-7.84,2.433-8.389,7.449v1.024c0,0.042,0.015,0.427,0.037,0.619
		c0.308,2.39,2.247,4.931,3.695,7.32c1.558,2.56,3.175,5.079,4.777,7.597c0.988-1.644,1.972-3.309,2.937-4.908
		c0.263-0.471,0.568-0.939,0.832-1.387c0.176-0.3,0.511-0.598,0.664-0.876c1.558-2.773,4.066-5.569,4.066-8.323v-1.131
		C223.561,210.138,223.18,209.092,223.158,209.028z M215.01,214.171c-1.097,0-2.297-0.533-2.89-2.006
		c-0.088-0.234-0.081-0.704-0.081-0.747v-0.662c0-1.878,1.64-2.731,3.065-2.731c1.756,0,3.114,1.365,3.114,3.073
		C218.218,212.806,216.766,214.171,215.01,214.171z"/>
</g>
</svg>
