<?xml version="1.0" encoding="utf-8"?>
<!-- Generator: Adobe Illustrator 15.0.0, SVG Export Plug-In . SVG Version: 6.00 Build 0)  -->
<!DOCTYPE svg PUBLIC "-//W3C//DTD SVG 1.1//EN" "http://www.w3.org/Graphics/SVG/1.1/DTD/svg11.dtd">
<svg version="1.1" id="Capa_1" xmlns="http://www.w3.org/2000/svg" xmlns:xlink="http://www.w3.org/1999/xlink" x="0px" y="0px"
	 width="24.009px" height="24.009px" viewBox="162.034 162.034 24.009 24.009"
	 enable-background="new 162.034 162.034 24.009 24.009" xml:space="preserve">
<g>
	<g>
		<g>
			<path fill="#D5DDDF" d="M182.162,178.987l-2.627-2.633c-0.522-0.522-1.39-0.506-1.931,0.036l-1.323,1.326
				c-0.084-0.046-0.17-0.094-0.261-0.146c-0.836-0.464-1.979-1.1-3.183-2.307c-1.207-1.21-1.842-2.358-2.307-3.196
				c-0.049-0.089-0.096-0.174-0.142-0.256l0.888-0.889l0.437-0.438c0.542-0.544,0.557-1.412,0.035-1.936l-2.626-2.633
				c-0.522-0.523-1.389-0.507-1.931,0.037l-0.74,0.746l0.021,0.02c-0.249,0.317-0.456,0.684-0.61,1.079
				c-0.142,0.376-0.23,0.734-0.271,1.094c-0.347,2.882,0.967,5.516,4.533,9.089c4.929,4.939,8.901,4.566,9.072,4.549
				c0.373-0.045,0.731-0.135,1.095-0.275c0.391-0.153,0.756-0.361,1.072-0.609l0.016,0.015l0.75-0.736
				C182.667,180.38,182.683,179.511,182.162,178.987z"/>
		</g>
	</g>
</g>
</svg>
